# xmcd
#
# Track frame offsets:
#	150
#	8641
#	14494
#	25779
#	38203
#	58051
#	68133
#	125089
#	145189
#	166106
#	177013
#	189767
#	201957
#	221174
#	238182
#
# Disc length: 3335 seconds
#
# Revision: 1
# Processed by: cddbd v1.5.2PL0 Copyright (c) Steve Scherf et al.
# Submitted via: audiograbber 1.83.01
#
DISCID=cf0d050f
DTITLE=The Bleasdale-Heywood Guitar Duo - Impressions
DYEAR=1900
DGENRE=
TTITLE0=Mark Houghton (Manuscript)  - Impressions Op. 41 - Valse
TTITLE1=Mark Houghton (Manuscript) - Impressions Op. 41 - Saltarello
TTITLE2=Mark Houghton (Manuscript) - Impressions Op. 41 - Spring Fair
TTITLE3=Mark Houghton (Manuscript) - Impressions Op. 41 - Gavot
TTITLE4=Mark Houghton (Manuscript) - Impressions Op. 41 - A Seascape
TTITLE5=Mark Houghton (Manuscript) - Impressions Op. 41 - A Country Ramble
TTITLE6=Fernando Sor - L'Encouragement Op. 34
TTITLE7=Robin Hill - Junkfood
TTITLE8=Mario Gangi - Suite Spagnola - Andalusa
TTITLE9=Mario Gangi - Suite Spagnola - Fandango
TTITLE10=Mario Gangi - Suite Spagnola - Sevillana
TTITLE11=Ferdinando Carulli - Largo Op. 34 No. 2
TTITLE12=Ferdinando Carulli - Rondo Op. 34 No. 2
TTITLE13=Manuel De Falla - Spanish Dance No. 1
TTITLE14=Manuel De Falla - The Miller's Dance
EXTD=
EXTT0=
EXTT1=
EXTT2=
EXTT3=
EXTT4=
EXTT5=
EXTT6=
EXTT7=
EXTT8=
EXTT9=
EXTT10=
EXTT11=
EXTT12=
EXTT13=
EXTT14=
PLAYORDER=
